<svg width="275" height="385" viewBox="0 0 275 385" fill="none" xmlns="http://www.w3.org/2000/svg">
<path d="M202.95 0C205.35 3.88792e-05 207.6 0.75004 209.7 2.25C212.1 3.75008 213.75 7.34998 214.65 13.0498C219.75 47.5498 225.9 82.2 233.1 117C235.389 128.065 237.785 139.054 240.287 149.968C236.67 149.528 232.986 149.3 229.25 149.3C213.692 149.3 199.052 153.226 186.265 160.141L164.724 56.8916L99.9658 193.05H151.745C145.625 203.174 141.435 214.593 139.679 226.8H83.9141L83.7002 227.25C79.8003 235.65 76.9504 242.7 75.1504 248.399C73.6504 254.099 72.7502 259.35 72.4502 264.149C72.1502 268.649 71.5504 273.9 70.6504 279.899C70.0504 285.599 67.1996 290.849 62.0996 295.649C56.9996 300.149 50.9996 304.2 44.0996 307.8C37.4997 311.1 31.2001 313.65 25.2002 315.45C19.2005 317.55 14.8504 318.6 12.1504 318.6C4.0506 318.6 0.000206807 316.05 0 310.95C0 308.55 1.1997 304.65 3.59961 299.25L137.25 29.7002C139.35 25.2003 143.7 20.7001 150.3 16.2002C156.9 11.7002 164.85 7.95019 174.15 4.9502C183.45 1.65025 193.05 0 202.95 0Z" fill="white"/>
<path d="M194.3 225.4C195.1 222.9 195.85 221.05 196.55 219.85C197.25 218.55 198.15 217.7 199.25 217.3C200.35 216.8 201.8 216.55 203.6 216.55H266.9C268.8 216.55 269.75 217.05 269.75 218.05C269.75 218.55 269.6 219.1 269.3 219.7C268.1 223.1 266.95 225.45 265.85 226.75C264.75 227.95 262.8 228.55 260 228.55H196.7C194.8 228.55 193.85 228.05 193.85 227.05C193.85 226.55 194 226 194.3 225.4ZM225.2 199.15C227.7 199.15 230.65 199.4 234.05 199.9C237.55 200.4 240.95 201.4 244.25 202.9C247.55 204.4 250.3 206.55 252.5 209.35C254.7 212.15 255.8 215.85 255.8 220.45C255.8 226.15 254.35 231.15 251.45 235.45C248.55 239.65 244.85 243.1 240.35 245.8C235.85 248.5 231.2 250.5 226.4 251.8C228.8 256.7 231.55 261.1 234.65 265C237.75 268.8 240.7 272 243.5 274.6C246.3 277.1 248.45 278.95 249.95 280.15C252.75 282.25 254.65 283.6 255.65 284.2C256.65 284.7 257.15 285.5 257.15 286.6C257.15 287.6 256.55 288.7 255.35 289.9C254.15 291.1 252.55 292.2 250.55 293.2C248.55 294.2 246.4 295 244.1 295.6C241.8 296.3 239.5 296.65 237.2 296.65C235.1 296.65 232.7 295.55 230 293.35C227.4 291.05 224.7 288 221.9 284.2C219.2 280.3 216.55 275.95 213.95 271.15C211.35 266.25 208.95 261.2 206.75 256C206.15 254.5 205.65 253.2 205.25 252.1C204.95 250.9 204.8 249.8 204.8 248.8C204.8 247.7 205.05 246.85 205.55 246.25C206.15 245.55 207.05 245.05 208.25 244.75C214.85 243.05 220.4 240.45 224.9 236.95C229.4 233.45 231.65 228.5 231.65 222.1C231.65 218.8 231.05 215.9 229.85 213.4C228.75 210.9 226.95 208.95 224.45 207.55C222.05 206.05 218.85 205.3 214.85 205.3L225.2 199.15ZM198.8 202.15C199.6 199.65 200.35 197.8 201.05 196.6C201.75 195.3 202.6 194.45 203.6 194.05C204.7 193.55 206.15 193.3 207.95 193.3H272C273.9 193.3 274.85 193.8 274.85 194.8C274.85 195.3 274.7 195.85 274.4 196.45C273.2 199.85 272.05 202.2 270.95 203.5C269.95 204.7 268.05 205.3 265.25 205.3H201.2C199.3 205.3 198.35 204.8 198.35 203.8C198.35 203.3 198.5 202.75 198.8 202.15Z" fill="white"/>
</svg>
