<svg width="48" height="48" viewBox="0 0 48 48" fill="none" xmlns="http://www.w3.org/2000/svg">
<g clip-path="url(#clip0_301_91)">
<path d="M21.6467 11.5481C22.1689 8.98529 25.8311 8.98529 26.3533 11.5481C26.7113 13.3047 28.7978 14.0641 30.2012 12.9486C32.2486 11.3211 35.0539 13.6751 33.8067 15.974C32.9518 17.5497 34.062 19.4727 35.854 19.5202C38.4686 19.5895 39.1046 23.196 36.6714 24.1553C35.0036 24.8129 34.618 26.9996 35.9603 28.1879C37.9186 29.9216 36.0876 33.0931 33.607 32.264C31.9067 31.6957 30.2058 33.123 30.4702 34.896C30.856 37.4829 27.4147 38.7355 26.0474 36.5058C25.1102 34.9776 22.8898 34.9776 21.9526 36.5058C20.5853 38.7355 17.144 37.4829 17.5298 34.896C17.7942 33.123 16.0933 31.6957 14.393 32.264C11.9124 33.0931 10.0814 29.9216 12.0397 28.1879C13.382 26.9996 12.9964 24.8129 11.3286 24.1553C8.89544 23.196 9.53136 19.5895 12.146 19.5202C13.938 19.4727 15.0482 17.5497 14.1933 15.974C12.9461 13.6751 15.7514 11.3211 17.7988 12.9486C19.2022 14.0641 21.2887 13.3047 21.6467 11.5481Z" fill="#FF4C4C"/>
<path d="M29 18L18 29M29 29L18 18" stroke="#0B0F1A" stroke-width="1.5" stroke-linecap="round" stroke-linejoin="round"/>
</g>
<defs>
<clipPath id="clip0_301_91">
<rect width="48" height="48" fill="white"/>
</clipPath>
</defs>
</svg>
