<svg width="48" height="48" viewBox="0 0 48 48" fill="none" xmlns="http://www.w3.org/2000/svg">
<g clip-path="url(#clip0_411_2563)">
<path d="M21.6467 11.5481C22.1689 8.98529 25.8311 8.98529 26.3533 11.5481C26.7113 13.3047 28.7978 14.0641 30.2012 12.9486C32.2486 11.3211 35.0539 13.6751 33.8067 15.974C32.9518 17.5497 34.062 19.4727 35.854 19.5202C38.4686 19.5895 39.1046 23.196 36.6714 24.1553C35.0036 24.8129 34.618 26.9996 35.9603 28.1879C37.9186 29.9216 36.0876 33.0931 33.607 32.264C31.9067 31.6957 30.2058 33.123 30.4702 34.896C30.856 37.4829 27.4147 38.7355 26.0474 36.5058C25.1102 34.9776 22.8898 34.9776 21.9526 36.5058C20.5853 38.7355 17.144 37.4829 17.5298 34.896C17.7942 33.123 16.0933 31.6957 14.393 32.264C11.9124 33.0931 10.0814 29.9216 12.0397 28.1879C13.382 26.9996 12.9964 24.8129 11.3286 24.1553C8.89544 23.196 9.53136 19.5895 12.146 19.5202C13.938 19.4727 15.0482 17.5497 14.1933 15.974C12.9461 13.6751 15.7514 11.3211 17.7988 12.9486C19.2022 14.0641 21.2887 13.3047 21.6467 11.5481Z" fill="#FFB100"/>
<path d="M23.9703 20.53C24.1109 20.6705 24.3016 20.7493 24.5003 20.7493C24.6991 20.7493 24.8897 20.6705 25.0303 20.53L26.0303 19.53C26.1351 19.4251 26.2064 19.2915 26.2353 19.1461C26.2642 19.0007 26.2493 18.85 26.1926 18.7131C26.1359 18.5761 26.0399 18.459 25.9166 18.3766C25.7934 18.2942 25.6486 18.2501 25.5003 18.25H23.5003C23.3521 18.2501 23.2072 18.2942 23.084 18.3766C22.9608 18.459 22.8647 18.5761 22.808 18.7131C22.7513 18.85 22.7365 19.0007 22.7654 19.1461C22.7942 19.2915 22.8656 19.4251 22.9703 19.53L23.9703 20.53ZM23.9703 27.47C24.1109 27.3295 24.3016 27.2507 24.5003 27.2507C24.6991 27.2507 24.8897 27.3295 25.0303 27.47L26.0303 28.47C26.1351 28.5749 26.2064 28.7085 26.2353 28.8539C26.2642 28.9993 26.2493 29.15 26.1926 29.2869C26.1359 29.4239 26.0399 29.541 25.9166 29.6234C25.7934 29.7058 25.6486 29.7499 25.5003 29.75H23.5003C23.3521 29.7499 23.2072 29.7058 23.084 29.6234C22.9608 29.541 22.8647 29.4239 22.808 29.2869C22.7513 29.15 22.7365 28.9993 22.7654 28.8539C22.7942 28.7085 22.8656 28.5749 22.9703 28.47L23.9703 27.47Z" fill="#0B0F1A"/>
<path fill-rule="evenodd" clip-rule="evenodd" d="M25.6491 23.9999L25.8361 23.8389C27.8111 22.1366 29.4535 20.0829 30.6801 17.7819C30.791 17.5737 30.8486 17.3412 30.8478 17.1053C30.847 16.8694 30.7877 16.6374 30.6753 16.4299C30.5628 16.2225 30.4008 16.0462 30.2035 15.9167C30.0063 15.7872 29.7801 15.7086 29.5451 15.6879L28.3711 15.5859C25.7953 15.361 23.2048 15.361 20.6291 15.5859L19.4551 15.6879C19.2201 15.7086 18.9938 15.7872 18.7966 15.9167C18.5994 16.0462 18.4373 16.2225 18.3249 16.4299C18.2125 16.6374 18.1532 16.8694 18.1524 17.1053C18.1515 17.3412 18.2091 17.5737 18.3201 17.7819C19.5466 20.0829 21.189 22.1366 23.1641 23.8389L23.3511 23.9999L23.1641 24.1609C21.1888 25.8639 19.5464 27.9182 18.3201 30.2199C18.2094 30.4281 18.1519 30.6605 18.1529 30.8963C18.1538 31.132 18.2131 31.3639 18.3255 31.5712C18.438 31.7785 18.5999 31.9547 18.797 32.0841C18.9941 32.2136 19.2202 32.2922 19.4551 32.3129L20.6291 32.4149C23.2051 32.6409 25.7951 32.6409 28.3711 32.4149L29.5451 32.3129C29.78 32.2922 30.006 32.2136 30.2031 32.0841C30.4002 31.9547 30.5622 31.7785 30.6746 31.5712C30.787 31.3639 30.8463 31.132 30.8473 30.8963C30.8483 30.6605 30.7908 30.4281 30.6801 30.2199C29.4536 27.9186 27.8112 25.8646 25.8361 24.1619L25.6491 23.9999ZM24.5041 23.0059L24.5061 23.0039L24.8571 22.7019C26.6634 21.1448 28.1705 19.2711 29.3041 17.1729L28.2401 17.0799C25.7515 16.8626 23.2487 16.8626 20.7601 17.0799L19.6951 17.1729C20.8289 19.2716 22.3363 21.1456 24.1431 22.7029L24.4931 23.0049L24.4961 23.0059H24.5041ZM24.5061 24.9959L24.5041 24.9939H24.4961L24.4931 24.9959L24.1431 25.2979C22.3363 26.8552 20.8289 28.7293 19.6951 30.8279L20.7591 30.9199C23.2491 31.1379 25.7521 31.1379 28.2401 30.9199L29.3041 30.8269C28.1706 28.7284 26.6635 26.8543 24.8571 25.2969L24.5061 24.9959Z" fill="#0B0F1A"/>
</g>
<defs>
<clipPath id="clip0_411_2563">
<rect width="48" height="48" fill="white"/>
</clipPath>
</defs>
</svg>
