<svg width="48" height="48" viewBox="0 0 48 48" fill="none" xmlns="http://www.w3.org/2000/svg">
<g clip-path="url(#clip0_297_162)">
<path d="M21.6467 11.5481C22.1689 8.98529 25.8311 8.98529 26.3533 11.5481C26.7113 13.3047 28.7978 14.0641 30.2012 12.9486C32.2486 11.3211 35.0539 13.6751 33.8067 15.974C32.9518 17.5497 34.062 19.4727 35.854 19.5202C38.4686 19.5895 39.1046 23.196 36.6714 24.1553C35.0036 24.8129 34.618 26.9996 35.9603 28.1879C37.9186 29.9216 36.0876 33.0931 33.607 32.264C31.9067 31.6957 30.2058 33.123 30.4702 34.896C30.856 37.4829 27.4147 38.7355 26.0474 36.5058C25.1102 34.9776 22.8898 34.9776 21.9526 36.5058C20.5853 38.7355 17.144 37.4829 17.5298 34.896C17.7942 33.123 16.0933 31.6957 14.393 32.264C11.9124 33.0931 10.0814 29.9216 12.0397 28.1879C13.382 26.9996 12.9964 24.8129 11.3286 24.1553C8.89544 23.196 9.53136 19.5895 12.146 19.5202C13.938 19.4727 15.0482 17.5497 14.1933 15.974C12.9461 13.6751 15.7514 11.3211 17.7988 12.9486C19.2022 14.0641 21.2887 13.3047 21.6467 11.5481Z" fill="#00FFAE"/>
<path d="M21.2873 26.7789L29.7604 18.3001C29.9603 18.1 30.1936 18 30.4602 18C30.7268 18 30.9601 18.1 31.1601 18.3001C31.36 18.5002 31.46 18.738 31.46 19.0135C31.46 19.2889 31.36 19.5263 31.1601 19.7258L21.9871 28.9299C21.7872 29.13 21.5539 29.23 21.2873 29.23C21.0207 29.23 20.7874 29.13 20.5874 28.9299L16.2884 24.628C16.0884 24.4279 15.9925 24.1904 16.0005 23.9156C16.0085 23.6408 16.1128 23.4031 16.3134 23.2023C16.514 23.0016 16.7516 22.9015 17.0262 22.9022C17.3008 22.9028 17.5381 23.0029 17.7381 23.2023L21.2873 26.7789Z" fill="#0B0F1A"/>
</g>
<defs>
<clipPath id="clip0_297_162">
<rect width="48" height="48" fill="white"/>
</clipPath>
</defs>
</svg>
