<svg width="39" height="31" viewBox="0 0 39 31" fill="none" xmlns="http://www.w3.org/2000/svg">
<rect y="5.35278" width="32.8823" height="5.35294" fill="white"/>
<path d="M27.8818 0C30.6433 0 32.8818 2.23858 32.8818 5V12.415C32.2623 12.299 31.6239 12.2354 30.9707 12.2354C30.603 12.2354 30.2396 12.2555 29.8818 12.293V5C29.8818 3.89543 28.9864 3 27.8818 3H5C3.89543 3 3 3.89543 3 5V20.2354C3.00004 21.3399 3.89546 22.2354 5 22.2354H20.6553C20.652 22.3427 20.6475 22.4504 20.6475 22.5586C20.6475 23.4844 20.7705 24.3816 20.999 25.2354H5L4.74316 25.2285C2.1862 25.0991 0.136257 23.0491 0.00683594 20.4922L0 20.2354V5C0 2.23858 2.23858 4.95558e-08 5 0H27.8818Z" fill="white"/>
<ellipse cx="31.3529" cy="22.9412" rx="7.64705" ry="7.64706" fill="white"/>
<rect x="30.5881" y="19.1177" width="2.29411" height="8.41176" rx="1.14706" fill="#0B0F1A"/>
<rect x="27.5295" y="24.4705" width="2.29412" height="8.41175" rx="1.14706" transform="rotate(-90 27.5295 24.4705)" fill="#0B0F1A"/>
</svg>
