<svg width="35" height="37" viewBox="0 0 35 37" fill="none" xmlns="http://www.w3.org/2000/svg">
<path d="M22.8203 0C25.5817 0 27.8203 2.23858 27.8203 5V15.4639C27.0934 15.3278 26.3436 15.2569 25.5771 15.2568C25.323 15.2568 25.0705 15.2649 24.8203 15.2803V5C24.8203 3.89543 23.9249 3 22.8203 3H5C3.89543 3 3 3.89543 3 5V29.1025C3 30.2071 3.89543 31.1025 5 31.1025H14.0488C14.3959 32.1758 14.8878 33.1836 15.5029 34.1025H5C2.23858 34.1025 0 31.864 0 29.1025V5C7.83839e-07 2.32472 2.10111 0.140529 4.74316 0.00683594L5 0H22.8203Z" fill="white"/>
<circle cx="26.0256" cy="27.8205" r="8.97436" fill="white"/>
<rect width="2.18557" height="5.45077" rx="1.09279" transform="matrix(0.411534 -0.911394 -0.911394 -0.411534 29.5093 31.7908)" fill="#0B0F1A"/>
<rect width="2.18557" height="8.49618" rx="1.09279" transform="matrix(-0.997273 0.0738052 0.0738052 0.997273 26.4299 21.4736)" fill="#0B0F1A"/>
<rect x="6.28198" y="7.17944" width="16.1538" height="2.69231" rx="1.34615" fill="white"/>
<rect x="6.28198" y="13.4614" width="16.1538" height="2.69231" rx="1.34615" fill="white"/>
<rect x="6.28198" y="19.7437" width="10.7692" height="2.69231" rx="1.34615" fill="white"/>
</svg>
