<svg width="601" height="601" viewBox="0 0 601 601" fill="none" xmlns="http://www.w3.org/2000/svg">
<g filter="url(#filter0_ii_41_42)">
<g clip-path="url(#clip0_41_42)">
<rect width="601" height="601" rx="137" fill="#1C2530"/>
<path d="M84.8 517.1C73.1 517.1 67.25 513.417 67.25 506.05C67.25 502.583 68.9833 496.95 72.45 489.15L265.5 99.8C268.533 93.3 274.817 86.8 284.35 80.3C293.883 73.8 305.367 68.3833 318.8 64.05C332.233 59.2833 346.1 56.9 360.4 56.9C363.867 56.9 367.117 57.9833 370.15 60.15C373.617 62.3167 376 67.5167 377.3 75.75C384.667 125.583 393.55 175.633 403.95 225.9C414.35 276.167 426.267 325.35 439.7 373.45C445.767 393.817 450.967 410.283 455.3 422.85C459.633 435.417 463.967 444.95 468.3 451.45C473.067 457.95 477.183 463.367 480.65 467.7C484.55 471.6 486.5 475.5 486.5 479.4C486.5 483.733 483.9 488.067 478.7 492.4C473.933 496.733 467.867 500.633 460.5 504.1C453.133 507.567 445.55 510.383 437.75 512.55C429.95 514.717 423.233 515.8 417.6 515.8C408.067 515.8 398.317 507.35 388.35 490.45C378.383 473.117 368.633 442.133 359.1 397.5L302.55 126.45L314.9 118.65L188.15 385.15C182.517 397.283 178.4 407.467 175.8 415.7C173.633 423.933 172.333 431.517 171.9 438.45C171.467 444.95 170.6 452.533 169.3 461.2C168.433 469.433 164.317 477.017 156.95 483.95C149.583 490.45 140.917 496.3 130.95 501.5C121.417 506.267 112.317 509.95 103.65 512.55C94.9833 515.583 88.7 517.1 84.8 517.1ZM166.7 384.5V335.75H408.5V384.5H166.7Z" fill="#0193D6"/>
<circle cx="396.5" cy="405.5" r="129.5" fill="#1C2530"/>
<path d="M340.68 385.16C341.96 381.16 343.16 378.2 344.28 376.28C345.4 374.2 346.84 372.84 348.6 372.2C350.36 371.4 352.68 371 355.56 371H456.84C459.88 371 461.4 371.8 461.4 373.4C461.4 374.2 461.16 375.08 460.68 376.04C458.76 381.48 456.92 385.24 455.16 387.32C453.4 389.24 450.28 390.2 445.8 390.2H344.52C341.48 390.2 339.96 389.4 339.96 387.8C339.96 387 340.2 386.12 340.68 385.16ZM390.12 343.16C394.12 343.16 398.84 343.56 404.28 344.36C409.88 345.16 415.32 346.76 420.6 349.16C425.88 351.56 430.28 355 433.8 359.48C437.32 363.96 439.08 369.88 439.08 377.24C439.08 386.36 436.76 394.36 432.12 401.24C427.48 407.96 421.56 413.48 414.36 417.8C407.16 422.12 399.72 425.32 392.04 427.4C395.88 435.24 400.28 442.28 405.24 448.52C410.2 454.6 414.92 459.72 419.4 463.88C423.88 467.88 427.32 470.84 429.72 472.76C434.2 476.12 437.24 478.28 438.84 479.24C440.44 480.04 441.24 481.32 441.24 483.08C441.24 484.68 440.28 486.44 438.36 488.36C436.44 490.28 433.88 492.04 430.68 493.64C427.48 495.24 424.04 496.52 420.36 497.48C416.68 498.6 413 499.16 409.32 499.16C405.96 499.16 402.12 497.4 397.8 493.88C393.64 490.2 389.32 485.32 384.84 479.24C380.52 473 376.28 466.04 372.12 458.36C367.96 450.52 364.12 442.44 360.6 434.12C359.64 431.72 358.84 429.64 358.2 427.88C357.72 425.96 357.48 424.2 357.48 422.6C357.48 420.84 357.88 419.48 358.68 418.52C359.64 417.4 361.08 416.6 363 416.12C373.56 413.4 382.44 409.24 389.64 403.64C396.84 398.04 400.44 390.12 400.44 379.88C400.44 374.6 399.48 369.96 397.56 365.96C395.8 361.96 392.92 358.84 388.92 356.6C385.08 354.2 379.96 353 373.56 353L390.12 343.16ZM347.88 347.96C349.16 343.96 350.36 341 351.48 339.08C352.6 337 353.96 335.64 355.56 335C357.32 334.2 359.64 333.8 362.52 333.8H465C468.04 333.8 469.56 334.6 469.56 336.2C469.56 337 469.32 337.88 468.84 338.84C466.92 344.28 465.08 348.04 463.32 350.12C461.72 352.04 458.68 353 454.2 353H351.72C348.68 353 347.16 352.2 347.16 350.6C347.16 349.8 347.4 348.92 347.88 347.96Z" fill="white"/>
</g>
</g>
<defs>
<filter id="filter0_ii_41_42" x="-20" y="-20" width="641" height="641" filterUnits="userSpaceOnUse" color-interpolation-filters="sRGB">
<feFlood flood-opacity="0" result="BackgroundImageFix"/>
<feBlend mode="normal" in="SourceGraphic" in2="BackgroundImageFix" result="shape"/>
<feColorMatrix in="SourceAlpha" type="matrix" values="0 0 0 0 0 0 0 0 0 0 0 0 0 0 0 0 0 0 127 0" result="hardAlpha"/>
<feOffset dx="20" dy="20"/>
<feGaussianBlur stdDeviation="20"/>
<feComposite in2="hardAlpha" operator="arithmetic" k2="-1" k3="1"/>
<feColorMatrix type="matrix" values="0 0 0 0 0.0412403 0 0 0 0 0.0493648 0 0 0 0 0.0592948 0 0 0 0.25 0"/>
<feBlend mode="normal" in2="shape" result="effect1_innerShadow_41_42"/>
<feColorMatrix in="SourceAlpha" type="matrix" values="0 0 0 0 0 0 0 0 0 0 0 0 0 0 0 0 0 0 127 0" result="hardAlpha"/>
<feOffset dx="-20" dy="-20"/>
<feGaussianBlur stdDeviation="20"/>
<feComposite in2="hardAlpha" operator="arithmetic" k2="-1" k3="1"/>
<feColorMatrix type="matrix" values="0 0 0 0 0.272842 0 0 0 0 0.330331 0 0 0 0 0.38782 0 0 0 0.25 0"/>
<feBlend mode="normal" in2="effect1_innerShadow_41_42" result="effect2_innerShadow_41_42"/>
</filter>
<clipPath id="clip0_41_42">
<rect width="601" height="601" rx="137" fill="white"/>
</clipPath>
</defs>
</svg>
