<svg width="108" height="133" viewBox="0 0 108 133" fill="none" xmlns="http://www.w3.org/2000/svg">
<path d="M79.5 53V16.5C79.5 16.5 78.5763 12.2163 77 10C75.1438 7.39023 70.5 5 70.5 5H15.5C15.5 5 10.2102 6.1416 8 8.5C5.71839 10.9346 5 16.5 5 16.5V103.5C5 103.5 6.34637 108.856 8.5 111.5C10.6216 114.105 15.5 116.5 15.5 116.5H54" stroke="white" stroke-width="10" stroke-linecap="round"/>
<path d="M54.5 10V11.5C54.5 13.9853 52.4853 16 50 16H35C32.5147 16 30.5 13.9853 30.5 11.5V10H54.5Z" fill="white" stroke="white"/>
<circle cx="42.5" cy="93" r="6" fill="white" stroke="white"/>
<mask id="path-4-outside-1_48_41" maskUnits="userSpaceOnUse" x="50" y="61.5" width="58" height="71" fill="black">
<rect fill="white" x="50" y="61.5" width="58" height="71"/>
<path d="M51.6 83.9C52.2 82.2333 52.7333 81.0333 53.2 80.3C53.6667 79.5 54.2333 79 54.9 78.8C55.6333 78.6 56.6 78.5 57.8 78.5H101C102.267 78.5 102.9 78.8333 102.9 79.5C102.9 79.8333 102.8 80.2 102.6 80.6C101.8 82.8667 101.033 84.3333 100.3 85C99.6333 85.6667 98.3667 86 96.5 86H53.3C52.0333 86 51.4 85.6667 51.4 85C51.4 84.8 51.4667 84.4333 51.6 83.9ZM74.3 66.4C75.9667 66.4 77.8667 66.5667 80 66.9C82.1333 67.2333 84.2 67.9 86.2 68.9C88.2 69.9 89.8667 71.3333 91.2 73.2C92.5333 75.0667 93.2 77.5333 93.2 80.6C93.2 84.4 92.3 87.7333 90.5 90.6C88.7667 93.4 86.4667 95.7 83.6 97.5C80.8 99.3 77.8 100.633 74.6 101.5C76.2 104.767 77.9 107.767 79.7 110.5C81.5667 113.233 83.3333 115.533 85 117.4C86.6667 119.267 88 120.6 89 121.4C90.8667 122.8 92.1333 123.7 92.8 124.1C93.4667 124.433 93.8 124.967 93.8 125.7C93.8 126.3 93.3667 126.933 92.5 127.6C91.7 128.2 90.6667 128.8 89.4 129.4C88.1333 130 86.8333 130.467 85.5 130.8C84.2333 131.2 83.1667 131.4 82.3 131.4C80.9667 131.4 79.5 130.633 77.9 129.1C76.3667 127.567 74.7333 125.5 73 122.9C71.2667 120.3 69.5667 117.333 67.9 114C66.2333 110.667 64.6333 107.167 63.1 103.5C62.8333 102.9 62.5333 102.3 62.2 101.7C61.9333 101.033 61.8 100.367 61.8 99.7C61.8 98.9667 62.0333 98.4667 62.5 98.2C62.9667 97.8667 63.4667 97.6667 64 97.6C68.5333 96.7333 72.3 94.9333 75.3 92.2C78.3667 89.4667 79.9 85.9667 79.9 81.7C79.9 79.5 79.5333 77.5333 78.8 75.8C78.0667 74 76.7667 72.6 74.9 71.6C73.1 70.5333 70.6 70 67.4 70L74.3 66.4ZM54.6 67.9C55.2 66.2333 55.7333 65.0333 56.2 64.3C56.6667 63.5 57.2333 63 57.9 62.8C58.6333 62.6 59.6 62.5 60.8 62.5H104.5C105.767 62.5 106.4 62.8333 106.4 63.5C106.4 63.8333 106.3 64.2 106.1 64.6C105.3 66.8667 104.533 68.3333 103.8 69C103.133 69.6667 101.867 70 100 70H56.3C55.0333 70 54.4 69.6667 54.4 69C54.4 68.8 54.4667 68.4333 54.6 67.9Z"/>
</mask>
<path d="M51.6 83.9C52.2 82.2333 52.7333 81.0333 53.2 80.3C53.6667 79.5 54.2333 79 54.9 78.8C55.6333 78.6 56.6 78.5 57.8 78.5H101C102.267 78.5 102.9 78.8333 102.9 79.5C102.9 79.8333 102.8 80.2 102.6 80.6C101.8 82.8667 101.033 84.3333 100.3 85C99.6333 85.6667 98.3667 86 96.5 86H53.3C52.0333 86 51.4 85.6667 51.4 85C51.4 84.8 51.4667 84.4333 51.6 83.9ZM74.3 66.4C75.9667 66.4 77.8667 66.5667 80 66.9C82.1333 67.2333 84.2 67.9 86.2 68.9C88.2 69.9 89.8667 71.3333 91.2 73.2C92.5333 75.0667 93.2 77.5333 93.2 80.6C93.2 84.4 92.3 87.7333 90.5 90.6C88.7667 93.4 86.4667 95.7 83.6 97.5C80.8 99.3 77.8 100.633 74.6 101.5C76.2 104.767 77.9 107.767 79.7 110.5C81.5667 113.233 83.3333 115.533 85 117.4C86.6667 119.267 88 120.6 89 121.4C90.8667 122.8 92.1333 123.7 92.8 124.1C93.4667 124.433 93.8 124.967 93.8 125.7C93.8 126.3 93.3667 126.933 92.5 127.6C91.7 128.2 90.6667 128.8 89.4 129.4C88.1333 130 86.8333 130.467 85.5 130.8C84.2333 131.2 83.1667 131.4 82.3 131.4C80.9667 131.4 79.5 130.633 77.9 129.1C76.3667 127.567 74.7333 125.5 73 122.9C71.2667 120.3 69.5667 117.333 67.9 114C66.2333 110.667 64.6333 107.167 63.1 103.5C62.8333 102.9 62.5333 102.3 62.2 101.7C61.9333 101.033 61.8 100.367 61.8 99.7C61.8 98.9667 62.0333 98.4667 62.5 98.2C62.9667 97.8667 63.4667 97.6667 64 97.6C68.5333 96.7333 72.3 94.9333 75.3 92.2C78.3667 89.4667 79.9 85.9667 79.9 81.7C79.9 79.5 79.5333 77.5333 78.8 75.8C78.0667 74 76.7667 72.6 74.9 71.6C73.1 70.5333 70.6 70 67.4 70L74.3 66.4ZM54.6 67.9C55.2 66.2333 55.7333 65.0333 56.2 64.3C56.6667 63.5 57.2333 63 57.9 62.8C58.6333 62.6 59.6 62.5 60.8 62.5H104.5C105.767 62.5 106.4 62.8333 106.4 63.5C106.4 63.8333 106.3 64.2 106.1 64.6C105.3 66.8667 104.533 68.3333 103.8 69C103.133 69.6667 101.867 70 100 70H56.3C55.0333 70 54.4 69.6667 54.4 69C54.4 68.8 54.4667 68.4333 54.6 67.9Z" fill="white"/>
<path d="M51.6 83.9L50.6591 83.5613L50.6421 83.6086L50.6299 83.6575L51.6 83.9ZM53.2 80.3L54.0437 80.8369L54.054 80.8206L54.0638 80.8039L53.2 80.3ZM54.9 78.8L54.6369 77.8352L54.6247 77.8386L54.6126 77.8422L54.9 78.8ZM102.6 80.6L101.706 80.1528L101.678 80.2085L101.657 80.2672L102.6 80.6ZM100.3 85L99.6273 84.2601L99.6097 84.2761L99.5929 84.2929L100.3 85ZM74.3 66.4V65.4H74.0548L73.8374 65.5134L74.3 66.4ZM80 66.9L79.8456 67.888V67.888L80 66.9ZM86.2 68.9L86.6472 68.0056L86.6472 68.0056L86.2 68.9ZM90.5 90.6L89.6531 90.0682L89.6497 90.0736L90.5 90.6ZM83.6 97.5L83.0682 96.6531L83.0592 96.6588L83.6 97.5ZM74.6 101.5L74.3386 100.535L73.1689 100.852L73.7019 101.94L74.6 101.5ZM79.7 110.5L78.8648 111.05L78.8695 111.057L78.8742 111.064L79.7 110.5ZM85 117.4L85.7459 116.734V116.734L85 117.4ZM89 121.4L88.3753 122.181L88.3875 122.191L88.4 122.2L89 121.4ZM92.8 124.1L92.2855 124.957L92.3184 124.977L92.3528 124.994L92.8 124.1ZM92.5 127.6L93.1 128.4L93.1097 128.393L92.5 127.6ZM89.4 129.4L88.9719 128.496L89.4 129.4ZM85.5 130.8L85.2575 129.83L85.2279 129.837L85.1989 129.846L85.5 130.8ZM77.9 129.1L77.1929 129.807L77.2004 129.815L77.2081 129.822L77.9 129.1ZM73 122.9L73.8321 122.345V122.345L73 122.9ZM67.9 114L68.7944 113.553V113.553L67.9 114ZM63.1 103.5L64.0226 103.114L64.0183 103.104L64.0138 103.094L63.1 103.5ZM62.2 101.7L61.2715 102.071L61.2951 102.13L61.3258 102.186L62.2 101.7ZM62.5 98.2L62.9961 99.0682L63.0401 99.0431L63.0812 99.0137L62.5 98.2ZM64 97.6L64.124 98.5923L64.1561 98.5883L64.1878 98.5822L64 97.6ZM75.3 92.2L74.6346 91.4534L74.6265 91.4608L75.3 92.2ZM78.8 75.8L77.8738 76.1773L77.879 76.1896L78.8 75.8ZM74.9 71.6L74.3902 72.4603L74.4088 72.4713L74.4278 72.4815L74.9 71.6ZM67.4 70L66.9374 69.1134L67.4 71V70ZM54.6 67.9L53.6591 67.5613L53.6421 67.6086L53.6299 67.6575L54.6 67.9ZM56.2 64.3L57.0437 64.8369L57.054 64.8206L57.0638 64.8039L56.2 64.3ZM57.9 62.8L57.6369 61.8352L57.6247 61.8385L57.6127 61.8422L57.9 62.8ZM106.1 64.6L105.206 64.1528L105.178 64.2085L105.157 64.2672L106.1 64.6ZM103.8 69L103.127 68.2601L103.11 68.2761L103.093 68.2929L103.8 69ZM51.6 83.9L52.5409 84.2387C53.1361 82.5855 53.6393 81.4724 54.0437 80.8369L53.2 80.3L52.3563 79.7631C51.8274 80.5943 51.2639 81.8812 50.6591 83.5613L51.6 83.9ZM53.2 80.3L54.0638 80.8039C54.446 80.1487 54.8347 79.8636 55.1874 79.7578L54.9 78.8L54.6126 77.8422C53.632 78.1364 52.8874 78.8513 52.3362 79.7961L53.2 80.3ZM54.9 78.8L55.1631 79.7648C55.7761 79.5976 56.6439 79.5 57.8 79.5V78.5V77.5C56.5561 77.5 55.4906 77.6024 54.6369 77.8352L54.9 78.8ZM57.8 78.5V79.5H101V78.5V77.5H57.8V78.5ZM101 78.5V79.5C101.578 79.5 101.858 79.5816 101.959 79.6349C101.995 79.6538 101.969 79.6484 101.936 79.5975C101.902 79.5429 101.9 79.4981 101.9 79.5H102.9H103.9C103.9 79.1685 103.819 78.8321 103.626 78.5274C103.436 78.2266 103.172 78.0129 102.891 77.8651C102.359 77.5851 101.688 77.5 101 77.5V78.5ZM102.9 79.5H101.9C101.9 79.6344 101.859 79.8464 101.706 80.1528L102.6 80.6L103.494 81.0472C103.741 80.5536 103.9 80.0323 103.9 79.5H102.9ZM102.6 80.6L101.657 80.2672C101.266 81.3738 100.893 82.2596 100.539 82.9367C100.178 83.6261 99.8681 84.0411 99.6273 84.2601L100.3 85L100.973 85.7399C101.465 85.2922 101.905 84.6406 102.311 83.8633C102.724 83.0737 103.134 82.0928 103.543 80.9328L102.6 80.6ZM100.3 85L99.5929 84.2929C99.229 84.6568 98.3281 85 96.5 85V86V87C98.4052 87 100.038 86.6765 101.007 85.7071L100.3 85ZM96.5 86V85H53.3V86V87H96.5V86ZM53.3 86V85C52.7218 85 52.4421 84.9184 52.3407 84.8651C52.3049 84.8462 52.3314 84.8516 52.3636 84.9024C52.3982 84.9571 52.4 85.0019 52.4 85H51.4H50.4C50.4 85.3315 50.481 85.6679 50.6739 85.9725C50.8645 86.2734 51.1285 86.4871 51.4093 86.6349C51.9412 86.9149 52.6115 87 53.3 87V86ZM51.4 85H52.4C52.4 85.0016 52.4001 84.9825 52.4057 84.9356C52.4109 84.8907 52.4199 84.8308 52.4339 84.7539C52.462 84.5993 52.5065 84.397 52.5701 84.1425L51.6 83.9L50.6299 83.6575C50.4997 84.178 50.4 84.6592 50.4 85H51.4ZM74.3 66.4V67.4C75.9025 67.4 77.7493 67.5605 79.8456 67.888L80 66.9L80.1544 65.912C77.984 65.5729 76.0309 65.4 74.3 65.4V66.4ZM80 66.9L79.8456 67.888C81.8735 68.2049 83.8417 68.8389 85.7528 69.7944L86.2 68.9L86.6472 68.0056C84.5583 66.9611 82.3932 66.2618 80.1544 65.912L80 66.9ZM86.2 68.9L85.7528 69.7944C87.603 70.7195 89.1452 72.0437 90.3863 73.7812L91.2 73.2L92.0137 72.6188C90.5882 70.6229 88.797 69.0805 86.6472 68.0056L86.2 68.9ZM91.2 73.2L90.3863 73.7812C91.5636 75.4295 92.2 77.6725 92.2 80.6H93.2H94.2C94.2 77.3942 93.5031 74.7038 92.0137 72.6188L91.2 73.2ZM93.2 80.6H92.2C92.2 84.2356 91.3412 87.3799 89.6531 90.0682L90.5 90.6L91.3469 91.1318C93.2589 88.0868 94.2 84.5644 94.2 80.6H93.2ZM90.5 90.6L89.6497 90.0736C87.999 92.7402 85.8094 94.9319 83.0682 96.6531L83.6 97.5L84.1318 98.3469C87.1239 96.4681 89.5343 94.0598 91.3503 91.1264L90.5 90.6ZM83.6 97.5L83.0592 96.6588C80.3451 98.4036 77.4393 99.695 74.3386 100.535L74.6 101.5L74.8614 102.465C78.1607 101.572 81.2549 100.196 84.1408 98.3412L83.6 97.5ZM74.6 101.5L73.7019 101.94C75.3185 105.24 77.0392 108.278 78.8648 111.05L79.7 110.5L80.5352 109.95C78.7608 107.256 77.0815 104.293 75.4981 101.06L74.6 101.5ZM79.7 110.5L78.8742 111.064C80.758 113.822 82.5511 116.159 84.2541 118.066L85 117.4L85.7459 116.734C84.1155 114.908 82.3754 112.644 80.5258 109.936L79.7 110.5ZM85 117.4L84.2541 118.066C85.9299 119.943 87.3081 121.327 88.3753 122.181L89 121.4L89.6247 120.619C88.6919 119.873 87.4035 118.59 85.7459 116.734L85 117.4ZM89 121.4L88.4 122.2C90.2597 123.595 91.5672 124.527 92.2855 124.957L92.8 124.1L93.3145 123.243C92.6994 122.873 91.4736 122.005 89.6 120.6L89 121.4ZM92.8 124.1L92.3528 124.994C92.5523 125.094 92.6496 125.196 92.702 125.28C92.7538 125.363 92.8 125.489 92.8 125.7H93.8H94.8C94.8 125.178 94.6795 124.67 94.398 124.22C94.1171 123.77 93.7144 123.439 93.2472 123.206L92.8 124.1ZM93.8 125.7H92.8C92.8 125.809 92.7024 126.183 91.8903 126.807L92.5 127.6L93.1097 128.393C94.0309 127.684 94.8 126.791 94.8 125.7H93.8ZM92.5 127.6L91.9 126.8C91.1703 127.347 90.2001 127.914 88.9719 128.496L89.4 129.4L89.8281 130.304C91.1333 129.686 92.2297 129.053 93.1 128.4L92.5 127.6ZM89.4 129.4L88.9719 128.496C87.7636 129.069 86.5257 129.513 85.2575 129.83L85.5 130.8L85.7425 131.77C87.141 131.421 88.5031 130.931 89.8281 130.304L89.4 129.4ZM85.5 130.8L85.1989 129.846C83.9836 130.23 83.0254 130.4 82.3 130.4V131.4V132.4C83.3079 132.4 84.4831 132.17 85.8011 131.754L85.5 130.8ZM82.3 131.4V130.4C81.3497 130.4 80.1217 129.844 78.5919 128.378L77.9 129.1L77.2081 129.822C78.8783 131.423 80.5837 132.4 82.3 132.4V131.4ZM77.9 129.1L78.6071 128.393C77.1358 126.922 75.5434 124.912 73.8321 122.345L73 122.9L72.168 123.455C73.9233 126.088 75.5976 128.212 77.1929 129.807L77.9 129.1ZM73 122.9L73.8321 122.345C72.1256 119.786 70.446 116.856 68.7944 113.553L67.9 114L67.0056 114.447C68.6874 117.811 70.4077 120.814 72.168 123.455L73 122.9ZM67.9 114L68.7944 113.553C67.1385 110.241 65.5478 106.761 64.0226 103.114L63.1 103.5L62.1774 103.886C63.7189 107.572 65.3282 111.092 67.0056 114.447L67.9 114ZM63.1 103.5L64.0138 103.094C63.7346 102.466 63.4212 101.839 63.0742 101.214L62.2 101.7L61.3258 102.186C61.6454 102.761 61.9321 103.334 62.1862 103.906L63.1 103.5ZM62.2 101.7L63.1285 101.329C62.9054 100.771 62.8 100.23 62.8 99.7H61.8H60.8C60.8 100.503 60.9613 101.296 61.2715 102.071L62.2 101.7ZM61.8 99.7H62.8C62.8 99.1776 62.9511 99.094 62.9961 99.0682L62.5 98.2L62.0039 97.3318C61.1156 97.8394 60.8 98.7557 60.8 99.7H61.8ZM62.5 98.2L63.0812 99.0137C63.422 98.7703 63.7666 98.637 64.124 98.5923L64 97.6L63.876 96.6077C63.1667 96.6964 62.5113 96.963 61.9188 97.3863L62.5 98.2ZM64 97.6L64.1878 98.5822C68.8769 97.6858 72.8191 95.8132 75.9735 92.9392L75.3 92.2L74.6265 91.4608C71.7809 94.0535 68.1898 95.7809 63.8122 96.6178L64 97.6ZM75.3 92.2L75.9654 92.9465C79.2541 90.0153 80.9 86.2393 80.9 81.7H79.9H78.9C78.9 85.694 77.4792 88.9181 74.6346 91.4535L75.3 92.2ZM79.9 81.7H80.9C80.9 79.3885 80.5145 77.286 79.721 75.4104L78.8 75.8L77.879 76.1896C78.5522 77.7807 78.9 79.6115 78.9 81.7H79.9ZM78.8 75.8L79.7261 75.4227C78.8968 73.3871 77.4246 71.818 75.3722 70.7185L74.9 71.6L74.4278 72.4815C76.1087 73.382 77.2366 74.6129 77.8739 76.1773L78.8 75.8ZM74.9 71.6L75.4098 70.7397C73.3945 69.5454 70.6919 69 67.4 69V70V71C70.5081 71 72.8055 71.5212 74.3902 72.4603L74.9 71.6ZM67.4 70L67.8626 70.8866L74.7626 67.2866L74.3 66.4L73.8374 65.5134L66.9374 69.1134L67.4 70ZM54.6 67.9L55.5409 68.2387C56.1361 66.5855 56.6393 65.4724 57.0437 64.8369L56.2 64.3L55.3563 63.7631C54.8274 64.5943 54.2639 65.8812 53.6591 67.5613L54.6 67.9ZM56.2 64.3L57.0638 64.8039C57.446 64.1487 57.8347 63.8636 58.1874 63.7578L57.9 62.8L57.6127 61.8422C56.632 62.1364 55.8874 62.8513 55.3362 63.7961L56.2 64.3ZM57.9 62.8L58.1631 63.7648C58.7761 63.5976 59.6439 63.5 60.8 63.5V62.5V61.5C59.5561 61.5 58.4906 61.6024 57.6369 61.8352L57.9 62.8ZM60.8 62.5V63.5H104.5V62.5V61.5H60.8V62.5ZM104.5 62.5V63.5C105.078 63.5 105.358 63.5816 105.459 63.6349C105.495 63.6538 105.469 63.6484 105.436 63.5975C105.402 63.5429 105.4 63.4981 105.4 63.5H106.4H107.4C107.4 63.1685 107.319 62.8321 107.126 62.5274C106.936 62.2266 106.672 62.0129 106.391 61.8651C105.859 61.5851 105.188 61.5 104.5 61.5V62.5ZM106.4 63.5H105.4C105.4 63.6344 105.359 63.8464 105.206 64.1528L106.1 64.6L106.994 65.0472C107.241 64.5536 107.4 64.0323 107.4 63.5H106.4ZM106.1 64.6L105.157 64.2672C104.766 65.3738 104.393 66.2596 104.039 66.9367C103.678 67.6261 103.368 68.0411 103.127 68.2601L103.8 69L104.473 69.7399C104.965 69.2922 105.405 68.6406 105.811 67.8633C106.224 67.0737 106.634 66.0928 107.043 64.9328L106.1 64.6ZM103.8 69L103.093 68.2929C102.729 68.6568 101.828 69 100 69V70V71C101.905 71 103.538 70.6765 104.507 69.7071L103.8 69ZM100 70V69H56.3V70V71H100V70ZM56.3 70V69C55.7218 69 55.4421 68.9184 55.3407 68.8651C55.3049 68.8462 55.3314 68.8516 55.3636 68.9024C55.3982 68.9571 55.4 69.0019 55.4 69H54.4H53.4C53.4 69.3315 53.481 69.6679 53.6739 69.9725C53.8645 70.2734 54.1285 70.4871 54.4093 70.6349C54.9412 70.9149 55.6115 71 56.3 71V70ZM54.4 69H55.4C55.4 69.0016 55.4001 68.9825 55.4057 68.9356C55.4109 68.8907 55.4199 68.8308 55.4339 68.7539C55.462 68.5993 55.5065 68.397 55.5701 68.1425L54.6 67.9L53.6299 67.6575C53.4997 68.178 53.4 68.6592 53.4 69H54.4Z" fill="white" mask="url(#path-4-outside-1_48_41)"/>
</svg>
