<svg width="35" height="37" viewBox="0 0 35 37" fill="none" xmlns="http://www.w3.org/2000/svg">
<path d="M1.5 3.71438L3.63333 6.56997V13.312C3.57644 15.8597 6.35972 18.1417 8.96522 20.4842M7.87296 11.4737L10.3889 14.2085C10.5476 14.3814 10.7369 14.5195 10.9459 14.6148C11.155 14.7101 11.3796 14.7608 11.6071 14.7639C11.8346 14.7671 12.0604 14.7226 12.2717 14.6332C12.483 14.5437 12.6757 14.4109 12.8386 14.2425C13.0016 14.074 13.1317 13.8731 13.2215 13.6513C13.3113 13.4295 13.359 13.191 13.362 12.9496C13.365 12.7082 13.3231 12.4685 13.2388 12.2443C13.1545 12.0201 13.0294 11.8156 12.8706 11.6427L8.95811 7.40612V5.19802C8.74556 3.87507 8.27152 2.61486 7.56718 1.50024" stroke="white" stroke-width="3" stroke-linecap="round" stroke-linejoin="round"/>
<path d="M8.9668 12.6509V30.9315C8.9668 31.5319 9.19156 32.1077 9.59163 32.5323C9.99171 32.9569 10.5343 33.1954 11.1001 33.1954H20.7001M33.5001 33.2437L31.3667 30.3881V23.6476C31.4165 21.4455 29.3458 19.4427 27.1001 17.4293" stroke="white" stroke-width="3" stroke-linecap="round" stroke-linejoin="round"/>
<path d="M14.3 6.02808H24.9667C25.5325 6.02808 26.0751 6.2666 26.4752 6.69117C26.8752 7.11574 27.1 7.69158 27.1 8.29202V25.4527L24.6111 22.7511C24.2905 22.4018 23.8523 22.202 23.3929 22.1957C22.9334 22.1893 22.4905 22.3769 22.1614 22.7171C21.8323 23.0574 21.644 23.5224 21.638 24.01C21.632 24.4975 21.8087 24.9676 22.1294 25.3169L26.0476 29.555V31.7616C26.2609 33.0822 26.7345 34.341 27.4385 35.4533" stroke="white" stroke-width="3" stroke-linecap="round" stroke-linejoin="round"/>
<path d="M17.1688 23.3173C16.4488 23.3173 15.8168 23.1853 15.2728 22.9213C14.7288 22.6573 14.2648 22.2693 13.8808 21.7573L14.8048 20.5453C15.2128 21.0733 15.6088 21.4413 15.9928 21.6493C16.3768 21.8573 16.8088 21.9613 17.2888 21.9613C17.5608 21.9613 17.8088 21.9213 18.0328 21.8413C18.2568 21.7533 18.4328 21.6373 18.5608 21.4933C18.6888 21.3413 18.7528 21.1693 18.7528 20.9773C18.7528 20.8413 18.7248 20.7173 18.6688 20.6053C18.6208 20.4853 18.5448 20.3813 18.4408 20.2933C18.3368 20.1973 18.2088 20.1093 18.0568 20.0293C17.9048 19.9493 17.7328 19.8813 17.5408 19.8253C17.3488 19.7693 17.1368 19.7173 16.9048 19.6693C16.3128 19.5493 15.8208 19.3773 15.4288 19.1533C15.0448 18.9213 14.7568 18.6333 14.5648 18.2893C14.3728 17.9453 14.2768 17.5413 14.2768 17.0773C14.2768 16.7253 14.3528 16.4013 14.5048 16.1053C14.6648 15.8093 14.8808 15.5533 15.1528 15.3373C15.4248 15.1213 15.7408 14.9533 16.1008 14.8333C16.4608 14.7133 16.8488 14.6533 17.2648 14.6533C17.9208 14.6533 18.5008 14.7733 19.0048 15.0133C19.5088 15.2453 19.9248 15.5933 20.2528 16.0573L19.3648 17.1373C19.0928 16.7693 18.7768 16.4933 18.4168 16.3093C18.0648 16.1173 17.6808 16.0213 17.2648 16.0213C16.9768 16.0213 16.7248 16.0613 16.5088 16.1413C16.3008 16.2213 16.1368 16.3373 16.0168 16.4893C15.8968 16.6333 15.8368 16.8093 15.8368 17.0173C15.8368 17.1773 15.8728 17.3213 15.9448 17.4493C16.0168 17.5693 16.1168 17.6773 16.2448 17.7733C16.3808 17.8693 16.5528 17.9533 16.7608 18.0253C16.9688 18.0973 17.2048 18.1613 17.4688 18.2173C17.9088 18.3053 18.3048 18.4253 18.6568 18.5773C19.0088 18.7213 19.3088 18.8973 19.5568 19.1053C19.8048 19.3053 19.9928 19.5373 20.1208 19.8013C20.2488 20.0573 20.3128 20.3453 20.3128 20.6653C20.3128 21.2173 20.1808 21.6933 19.9168 22.0933C19.6608 22.4853 19.2968 22.7893 18.8248 23.0053C18.3528 23.2133 17.8008 23.3173 17.1688 23.3173ZM16.4488 24.2893L16.4968 18.7933L17.5888 19.1893L17.6368 24.2893H16.4488ZM18.0088 19.1893L16.9168 18.7933L16.8688 13.7893H18.0568L18.0088 19.1893Z" fill="white"/>
</svg>
