<svg width="39" height="40" viewBox="0 0 39 40" fill="none" xmlns="http://www.w3.org/2000/svg">
<path d="M1.50012 3.71438L3.63345 6.56997V13.312C3.57656 15.8597 6.35984 18.1417 8.96534 20.4842M7.87308 11.4737L10.389 14.2085C10.5477 14.3814 10.737 14.5195 10.9461 14.6148C11.1551 14.7101 11.3798 14.7608 11.6072 14.7639C11.8347 14.7671 12.0606 14.7226 12.2719 14.6332C12.4832 14.5437 12.6758 14.4109 12.8388 14.2425C13.0017 14.074 13.1318 13.8731 13.2216 13.6513C13.3114 13.4295 13.3591 13.191 13.3621 12.9496C13.3651 12.7082 13.3232 12.4685 13.2389 12.2443C13.1546 12.0201 13.0295 11.8156 12.8708 11.6427L8.95823 7.40612V5.19802C8.74568 3.87507 8.27165 2.61486 7.5673 1.50024" stroke="white" stroke-width="3" stroke-linecap="round" stroke-linejoin="round"/>
<path d="M8.96692 12.6509V30.9315C8.96692 31.5319 9.19168 32.1077 9.59176 32.5323C9.99183 32.9569 10.5345 33.1954 11.1002 33.1954H20.7002M33.5002 33.2437L31.3668 30.3881V23.6476C31.4166 21.4455 29.3459 19.4427 27.1002 17.4293" stroke="white" stroke-width="3" stroke-linecap="round" stroke-linejoin="round"/>
<path d="M14.3002 6.0282H24.9668C25.5326 6.0282 26.0752 6.26672 26.4753 6.69129C26.8754 7.11586 27.1001 7.69171 27.1001 8.29214V25.4528L24.6112 22.7512C24.2906 22.4019 23.8524 22.2022 23.393 22.1958C22.9336 22.1894 22.4906 22.377 22.1615 22.7172C21.8324 23.0575 21.6441 23.5225 21.6381 24.0101C21.6321 24.4976 21.8089 24.9677 22.1295 25.317L26.0477 29.5551V31.7617C26.261 33.0823 26.7346 34.3411 27.4386 35.4534" stroke="white" stroke-width="3" stroke-linecap="round" stroke-linejoin="round"/>
<path d="M17.1689 23.3173C16.4489 23.3173 15.8169 23.1853 15.2729 22.9213C14.7289 22.6573 14.2649 22.2693 13.8809 21.7573L14.8049 20.5453C15.2129 21.0733 15.6089 21.4413 15.9929 21.6493C16.3769 21.8573 16.8089 21.9613 17.2889 21.9613C17.5609 21.9613 17.8089 21.9213 18.0329 21.8413C18.2569 21.7533 18.4329 21.6373 18.5609 21.4933C18.6889 21.3413 18.7529 21.1693 18.7529 20.9773C18.7529 20.8413 18.7249 20.7173 18.6689 20.6053C18.6209 20.4853 18.5449 20.3813 18.4409 20.2933C18.3369 20.1973 18.2089 20.1093 18.0569 20.0293C17.9049 19.9493 17.7329 19.8813 17.5409 19.8253C17.3489 19.7693 17.1369 19.7173 16.9049 19.6693C16.3129 19.5493 15.8209 19.3773 15.4289 19.1533C15.0449 18.9213 14.7569 18.6333 14.5649 18.2893C14.3729 17.9453 14.2769 17.5413 14.2769 17.0773C14.2769 16.7253 14.3529 16.4013 14.5049 16.1053C14.6649 15.8093 14.8809 15.5533 15.1529 15.3373C15.4249 15.1213 15.7409 14.9533 16.1009 14.8333C16.4609 14.7133 16.8489 14.6533 17.2649 14.6533C17.9209 14.6533 18.5009 14.7733 19.0049 15.0133C19.5089 15.2453 19.9249 15.5933 20.2529 16.0573L19.3649 17.1373C19.0929 16.7693 18.7769 16.4933 18.4169 16.3093C18.0649 16.1173 17.6809 16.0213 17.2649 16.0213C16.9769 16.0213 16.7249 16.0613 16.5089 16.1413C16.3009 16.2213 16.1369 16.3373 16.0169 16.4893C15.8969 16.6333 15.8369 16.8093 15.8369 17.0173C15.8369 17.1773 15.8729 17.3213 15.9449 17.4493C16.0169 17.5693 16.1169 17.6773 16.2449 17.7733C16.3809 17.8693 16.5529 17.9533 16.7609 18.0253C16.9689 18.0973 17.2049 18.1613 17.4689 18.2173C17.9089 18.3053 18.3049 18.4253 18.6569 18.5773C19.0089 18.7213 19.3089 18.8973 19.5569 19.1053C19.8049 19.3053 19.9929 19.5373 20.1209 19.8013C20.2489 20.0573 20.3129 20.3453 20.3129 20.6653C20.3129 21.2173 20.1809 21.6933 19.9169 22.0933C19.6609 22.4853 19.2969 22.7893 18.8249 23.0053C18.3529 23.2133 17.8009 23.3173 17.1689 23.3173ZM16.4489 24.2893L16.4969 18.7933L17.5889 19.1893L17.6369 24.2893H16.4489ZM18.0089 19.1893L16.9169 18.7933L16.8689 13.7893H18.0569L18.0089 19.1893Z" fill="white"/>
<circle cx="28.0001" cy="28.5002" r="11" fill="#202224"/>
<circle cx="27.9745" cy="28.4746" r="8.97436" fill="white"/>
<rect width="2.18557" height="5.45077" rx="1.09279" transform="matrix(0.411534 -0.911394 -0.911394 -0.411534 31.458 32.4447)" fill="#0B0F1A"/>
<rect width="2.18557" height="8.49618" rx="1.09279" transform="matrix(-0.997273 0.0738052 0.0738052 0.997273 28.3785 22.1274)" fill="#0B0F1A"/>
</svg>
