<svg width="55" height="55" viewBox="0 0 55 55" fill="none" xmlns="http://www.w3.org/2000/svg">
<path d="M18.3334 48.1251H9.16675C8.55896 48.1251 7.97607 47.8836 7.54629 47.4539C7.11652 47.0241 6.87508 46.4412 6.87508 45.8334V36.6667C6.87508 36.059 6.63364 35.4761 6.20387 35.0463C5.7741 34.6165 5.1912 34.3751 4.58341 34.3751C3.97563 34.3751 3.39273 34.6165 2.96296 35.0463C2.53319 35.4761 2.29175 36.059 2.29175 36.6667V45.8334C2.29175 47.6568 3.01608 49.4055 4.30539 50.6948C5.5947 51.9841 7.34338 52.7084 9.16675 52.7084H18.3334C18.9412 52.7084 19.5241 52.467 19.9539 52.0372C20.3836 51.6074 20.6251 51.0245 20.6251 50.4167C20.6251 49.809 20.3836 49.2261 19.9539 48.7963C19.5241 48.3665 18.9412 48.1251 18.3334 48.1251ZM50.4167 34.3751C49.809 34.3751 49.2261 34.6165 48.7963 35.0463C48.3665 35.4761 48.1251 36.059 48.1251 36.6667V45.8334C48.1251 46.4412 47.8836 47.0241 47.4539 47.4539C47.0241 47.8836 46.4412 48.1251 45.8334 48.1251H36.6667C36.059 48.1251 35.4761 48.3665 35.0463 48.7963C34.6165 49.2261 34.3751 49.809 34.3751 50.4167C34.3751 51.0245 34.6165 51.6074 35.0463 52.0372C35.4761 52.467 36.059 52.7084 36.6667 52.7084H45.8334C47.6568 52.7084 49.4055 51.9841 50.6948 50.6948C51.9841 49.4055 52.7084 47.6568 52.7084 45.8334V36.6667C52.7084 36.059 52.467 35.4761 52.0372 35.0463C51.6074 34.6165 51.0245 34.3751 50.4167 34.3751ZM45.8334 2.29175H36.6667C36.059 2.29175 35.4761 2.53319 35.0463 2.96296C34.6165 3.39273 34.3751 3.97563 34.3751 4.58341C34.3751 5.1912 34.6165 5.7741 35.0463 6.20387C35.4761 6.63364 36.059 6.87508 36.6667 6.87508H45.8334C46.4412 6.87508 47.0241 7.11652 47.4539 7.54629C47.8836 7.97607 48.1251 8.55896 48.1251 9.16675V18.3334C48.1251 18.9412 48.3665 19.5241 48.7963 19.9539C49.2261 20.3836 49.809 20.6251 50.4167 20.6251C51.0245 20.6251 51.6074 20.3836 52.0372 19.9539C52.467 19.5241 52.7084 18.9412 52.7084 18.3334V9.16675C52.7084 7.34338 51.9841 5.5947 50.6948 4.30539C49.4055 3.01608 47.6568 2.29175 45.8334 2.29175ZM4.58341 20.6251C5.1912 20.6251 5.7741 20.3836 6.20387 19.9539C6.63364 19.5241 6.87508 18.9412 6.87508 18.3334V9.16675C6.87508 8.55896 7.11652 7.97607 7.54629 7.54629C7.97607 7.11652 8.55896 6.87508 9.16675 6.87508H18.3334C18.9412 6.87508 19.5241 6.63364 19.9539 6.20387C20.3836 5.7741 20.6251 5.1912 20.6251 4.58341C20.6251 3.97563 20.3836 3.39273 19.9539 2.96296C19.5241 2.53319 18.9412 2.29175 18.3334 2.29175H9.16675C7.34338 2.29175 5.5947 3.01608 4.30539 4.30539C3.01608 5.5947 2.29175 7.34338 2.29175 9.16675V18.3334C2.29175 18.9412 2.53319 19.5241 2.96296 19.9539C3.39273 20.3836 3.97563 20.6251 4.58341 20.6251ZM22.9167 11.4584H13.7501C13.1423 11.4584 12.5594 11.6999 12.1296 12.1296C11.6999 12.5594 11.4584 13.1423 11.4584 13.7501V22.9167C11.4584 23.5245 11.6999 24.1074 12.1296 24.5372C12.5594 24.967 13.1423 25.2084 13.7501 25.2084H22.9167C23.5245 25.2084 24.1074 24.967 24.5372 24.5372C24.967 24.1074 25.2084 23.5245 25.2084 22.9167V13.7501C25.2084 13.1423 24.967 12.5594 24.5372 12.1296C24.1074 11.6999 23.5245 11.4584 22.9167 11.4584ZM20.6251 20.6251H16.0417V16.0417H20.6251V20.6251ZM32.0834 25.2084H41.2501C41.8579 25.2084 42.4408 24.967 42.8705 24.5372C43.3003 24.1074 43.5417 23.5245 43.5417 22.9167V13.7501C43.5417 13.1423 43.3003 12.5594 42.8705 12.1296C42.4408 11.6999 41.8579 11.4584 41.2501 11.4584H32.0834C31.4756 11.4584 30.8927 11.6999 30.463 12.1296C30.0332 12.5594 29.7917 13.1423 29.7917 13.7501V22.9167C29.7917 23.5245 30.0332 24.1074 30.463 24.5372C30.8927 24.967 31.4756 25.2084 32.0834 25.2084ZM34.3751 16.0417H38.9584V20.6251H34.3751V16.0417ZM22.9167 29.7917H13.7501C13.1423 29.7917 12.5594 30.0332 12.1296 30.463C11.6999 30.8927 11.4584 31.4756 11.4584 32.0834V41.2501C11.4584 41.8579 11.6999 42.4408 12.1296 42.8705C12.5594 43.3003 13.1423 43.5417 13.7501 43.5417H22.9167C23.5245 43.5417 24.1074 43.3003 24.5372 42.8705C24.967 42.4408 25.2084 41.8579 25.2084 41.2501V32.0834C25.2084 31.4756 24.967 30.8927 24.5372 30.463C24.1074 30.0332 23.5245 29.7917 22.9167 29.7917ZM20.6251 38.9584H16.0417V34.3751H20.6251V38.9584ZM32.0834 36.6667C32.6912 36.6667 33.2741 36.4253 33.7039 35.9955C34.1336 35.5658 34.3751 34.9829 34.3751 34.3751C34.9829 34.3751 35.5658 34.1336 35.9955 33.7039C36.4253 33.2741 36.6667 32.6912 36.6667 32.0834C36.6667 31.4756 36.4253 30.8927 35.9955 30.463C35.5658 30.0332 34.9829 29.7917 34.3751 29.7917H32.0834C31.4756 29.7917 30.8927 30.0332 30.463 30.463C30.0332 30.8927 29.7917 31.4756 29.7917 32.0834V34.3751C29.7917 34.9829 30.0332 35.5658 30.463 35.9955C30.8927 36.4253 31.4756 36.6667 32.0834 36.6667ZM41.2501 29.7917C40.6423 29.7917 40.0594 30.0332 39.6296 30.463C39.1999 30.8927 38.9584 31.4756 38.9584 32.0834V38.9584C38.3506 38.9584 37.7677 39.1999 37.338 39.6296C36.9082 40.0594 36.6667 40.6423 36.6667 41.2501C36.6667 41.8579 36.9082 42.4408 37.338 42.8705C37.7677 43.3003 38.3506 43.5417 38.9584 43.5417H41.2501C41.8579 43.5417 42.4408 43.3003 42.8705 42.8705C43.3003 42.4408 43.5417 41.8579 43.5417 41.2501V32.0834C43.5417 31.4756 43.3003 30.8927 42.8705 30.463C42.4408 30.0332 41.8579 29.7917 41.2501 29.7917ZM32.0834 38.9584C31.6302 38.9584 31.1871 39.0928 30.8102 39.3446C30.4334 39.5964 30.1396 39.9543 29.9662 40.3731C29.7927 40.7918 29.7474 41.2526 29.8358 41.6972C29.9242 42.1417 30.1425 42.55 30.463 42.8705C30.7835 43.191 31.1918 43.4093 31.6363 43.4977C32.0809 43.5861 32.5416 43.5408 32.9604 43.3673C33.3791 43.1939 33.7371 42.9001 33.9889 42.5233C34.2407 42.1464 34.3751 41.7033 34.3751 41.2501C34.3751 40.6423 34.1336 40.0594 33.7039 39.6296C33.2741 39.1999 32.6912 38.9584 32.0834 38.9584Z" fill="#0B0F1A"/>
</svg>
