<svg width="42" height="42" viewBox="0 0 42 42" fill="none" xmlns="http://www.w3.org/2000/svg">
<path d="M14 36.75H7C6.53587 36.75 6.09075 36.5656 5.76256 36.2374C5.43437 35.9092 5.25 35.4641 5.25 35V28C5.25 27.5359 5.06563 27.0908 4.73744 26.7626C4.40925 26.4344 3.96413 26.25 3.5 26.25C3.03587 26.25 2.59075 26.4344 2.26256 26.7626C1.93437 27.0908 1.75 27.5359 1.75 28V35C1.75 36.3924 2.30312 37.7277 3.28769 38.7123C4.27226 39.6969 5.60761 40.25 7 40.25H14C14.4641 40.25 14.9092 40.0656 15.2374 39.7374C15.5656 39.4092 15.75 38.9641 15.75 38.5C15.75 38.0359 15.5656 37.5908 15.2374 37.2626C14.9092 36.9344 14.4641 36.75 14 36.75ZM38.5 26.25C38.0359 26.25 37.5908 26.4344 37.2626 26.7626C36.9344 27.0908 36.75 27.5359 36.75 28V35C36.75 35.4641 36.5656 35.9092 36.2374 36.2374C35.9092 36.5656 35.4641 36.75 35 36.75H28C27.5359 36.75 27.0908 36.9344 26.7626 37.2626C26.4344 37.5908 26.25 38.0359 26.25 38.5C26.25 38.9641 26.4344 39.4092 26.7626 39.7374C27.0908 40.0656 27.5359 40.25 28 40.25H35C36.3924 40.25 37.7277 39.6969 38.7123 38.7123C39.6969 37.7277 40.25 36.3924 40.25 35V28C40.25 27.5359 40.0656 27.0908 39.7374 26.7626C39.4092 26.4344 38.9641 26.25 38.5 26.25ZM35 1.75H28C27.5359 1.75 27.0908 1.93437 26.7626 2.26256C26.4344 2.59075 26.25 3.03587 26.25 3.5C26.25 3.96413 26.4344 4.40925 26.7626 4.73744C27.0908 5.06563 27.5359 5.25 28 5.25H35C35.4641 5.25 35.9092 5.43437 36.2374 5.76256C36.5656 6.09075 36.75 6.53587 36.75 7V14C36.75 14.4641 36.9344 14.9092 37.2626 15.2374C37.5908 15.5656 38.0359 15.75 38.5 15.75C38.9641 15.75 39.4092 15.5656 39.7374 15.2374C40.0656 14.9092 40.25 14.4641 40.25 14V7C40.25 5.60761 39.6969 4.27226 38.7123 3.28769C37.7277 2.30312 36.3924 1.75 35 1.75ZM3.5 15.75C3.96413 15.75 4.40925 15.5656 4.73744 15.2374C5.06563 14.9092 5.25 14.4641 5.25 14V7C5.25 6.53587 5.43437 6.09075 5.76256 5.76256C6.09075 5.43437 6.53587 5.25 7 5.25H14C14.4641 5.25 14.9092 5.06563 15.2374 4.73744C15.5656 4.40925 15.75 3.96413 15.75 3.5C15.75 3.03587 15.5656 2.59075 15.2374 2.26256C14.9092 1.93437 14.4641 1.75 14 1.75H7C5.60761 1.75 4.27226 2.30312 3.28769 3.28769C2.30312 4.27226 1.75 5.60761 1.75 7V14C1.75 14.4641 1.93437 14.9092 2.26256 15.2374C2.59075 15.5656 3.03587 15.75 3.5 15.75ZM17.5 8.75H10.5C10.0359 8.75 9.59075 8.93437 9.26256 9.26256C8.93437 9.59075 8.75 10.0359 8.75 10.5V17.5C8.75 17.9641 8.93437 18.4092 9.26256 18.7374C9.59075 19.0656 10.0359 19.25 10.5 19.25H17.5C17.9641 19.25 18.4092 19.0656 18.7374 18.7374C19.0656 18.4092 19.25 17.9641 19.25 17.5V10.5C19.25 10.0359 19.0656 9.59075 18.7374 9.26256C18.4092 8.93437 17.9641 8.75 17.5 8.75ZM15.75 15.75H12.25V12.25H15.75V15.75ZM24.5 19.25H31.5C31.9641 19.25 32.4093 19.0656 32.7374 18.7374C33.0656 18.4092 33.25 17.9641 33.25 17.5V10.5C33.25 10.0359 33.0656 9.59075 32.7374 9.26256C32.4093 8.93437 31.9641 8.75 31.5 8.75H24.5C24.0359 8.75 23.5908 8.93437 23.2626 9.26256C22.9344 9.59075 22.75 10.0359 22.75 10.5V17.5C22.75 17.9641 22.9344 18.4092 23.2626 18.7374C23.5908 19.0656 24.0359 19.25 24.5 19.25ZM26.25 12.25H29.75V15.75H26.25V12.25ZM17.5 22.75H10.5C10.0359 22.75 9.59075 22.9344 9.26256 23.2626C8.93437 23.5908 8.75 24.0359 8.75 24.5V31.5C8.75 31.9641 8.93437 32.4093 9.26256 32.7374C9.59075 33.0656 10.0359 33.25 10.5 33.25H17.5C17.9641 33.25 18.4092 33.0656 18.7374 32.7374C19.0656 32.4093 19.25 31.9641 19.25 31.5V24.5C19.25 24.0359 19.0656 23.5908 18.7374 23.2626C18.4092 22.9344 17.9641 22.75 17.5 22.75ZM15.75 29.75H12.25V26.25H15.75V29.75ZM24.5 28C24.9641 28 25.4092 27.8156 25.7374 27.4874C26.0656 27.1592 26.25 26.7141 26.25 26.25C26.7141 26.25 27.1592 26.0656 27.4874 25.7374C27.8156 25.4092 28 24.9641 28 24.5C28 24.0359 27.8156 23.5908 27.4874 23.2626C27.1592 22.9344 26.7141 22.75 26.25 22.75H24.5C24.0359 22.75 23.5908 22.9344 23.2626 23.2626C22.9344 23.5908 22.75 24.0359 22.75 24.5V26.25C22.75 26.7141 22.9344 27.1592 23.2626 27.4874C23.5908 27.8156 24.0359 28 24.5 28ZM31.5 22.75C31.0359 22.75 30.5907 22.9344 30.2626 23.2626C29.9344 23.5908 29.75 24.0359 29.75 24.5V29.75C29.2859 29.75 28.8407 29.9344 28.5126 30.2626C28.1844 30.5907 28 31.0359 28 31.5C28 31.9641 28.1844 32.4093 28.5126 32.7374C28.8407 33.0656 29.2859 33.25 29.75 33.25H31.5C31.9641 33.25 32.4093 33.0656 32.7374 32.7374C33.0656 32.4093 33.25 31.9641 33.25 31.5V24.5C33.25 24.0359 33.0656 23.5908 32.7374 23.2626C32.4093 22.9344 31.9641 22.75 31.5 22.75ZM24.5 29.75C24.1539 29.75 23.8155 29.8526 23.5278 30.0449C23.24 30.2372 23.0157 30.5105 22.8832 30.8303C22.7508 31.1501 22.7161 31.5019 22.7836 31.8414C22.8512 32.1809 23.0178 32.4927 23.2626 32.7374C23.5073 32.9822 23.8191 33.1488 24.1586 33.2164C24.4981 33.2839 24.8499 33.2492 25.1697 33.1168C25.4895 32.9843 25.7628 32.76 25.9551 32.4722C26.1474 32.1845 26.25 31.8461 26.25 31.5C26.25 31.0359 26.0656 30.5907 25.7374 30.2626C25.4092 29.9344 24.9641 29.75 24.5 29.75Z" fill="white"/>
</svg>
