<svg width="38" height="31" viewBox="0 0 38 31" fill="none" xmlns="http://www.w3.org/2000/svg">
<path d="M18.4364 20.8C18.8461 20.8 19.1852 20.6657 19.4537 20.3972C19.7222 20.1287 19.8558 19.7903 19.8545 19.3818V17.0182H24.5818C25.1176 17.0182 25.567 16.8367 25.93 16.4736C26.2931 16.1105 26.474 15.6618 26.4727 15.1273V11.3455C26.4727 10.8097 26.2912 10.3609 25.9281 9.99913C25.5651 9.63733 25.1163 9.4558 24.5818 9.45454H18.9091C18.3733 9.45454 17.9246 9.63607 17.5628 9.99913C17.201 10.3622 17.0194 10.811 17.0182 11.3455V19.3818C17.0182 19.7915 17.1524 20.1306 17.4209 20.3991C17.6895 20.6676 18.0279 20.8013 18.4364 20.8ZM29.7818 20.8C30.1915 20.8 30.5306 20.6657 30.7991 20.3972C31.0676 20.1287 31.2013 19.7903 31.2 19.3818V10.8727C31.2 10.463 31.0657 10.1246 30.7972 9.85731C30.5287 9.59006 30.1903 9.4558 29.7818 9.45454C29.3734 9.45328 29.0349 9.58754 28.7664 9.85731C28.4979 10.1271 28.3636 10.4655 28.3636 10.8727V19.3818C28.3636 19.7915 28.4979 20.1306 28.7664 20.3991C29.0349 20.6676 29.3734 20.8013 29.7818 20.8ZM19.8545 14.1818V12.2909H23.6364V14.1818H19.8545ZM7.56364 20.8H13.2364C13.7721 20.8 14.2215 20.6185 14.5846 20.2554C14.9476 19.8924 15.1285 19.4436 15.1273 18.9091V10.8727C15.1273 10.463 14.993 10.1246 14.7245 9.85731C14.456 9.59006 14.1175 9.4558 13.7091 9.45454C13.3007 9.45328 12.9622 9.58754 12.6937 9.85731C12.4252 10.1271 12.2909 10.4655 12.2909 10.8727V17.9636H8.50909V10.8727C8.50909 10.463 8.37484 10.1246 8.10633 9.85731C7.83782 9.59006 7.49934 9.4558 7.09091 9.45454C6.68247 9.45328 6.344 9.58754 6.07549 9.85731C5.80698 10.1271 5.67273 10.4655 5.67273 10.8727V18.9091C5.67273 19.4448 5.85425 19.8943 6.21731 20.2573C6.58036 20.6204 7.02914 20.8013 7.56364 20.8ZM3.78182 30.2545C2.74182 30.2545 1.85183 29.8846 1.11185 29.1446C0.371879 28.4046 0.00126061 27.514 0 26.4727V3.78182C0 2.74182 0.370618 1.85183 1.11185 1.11185C1.85309 0.371878 2.74308 0.00126061 3.78182 0H34.0364C35.0764 0 35.967 0.370618 36.7082 1.11185C37.4495 1.85309 37.8194 2.74308 37.8182 3.78182V26.4727C37.8182 27.5127 37.4482 28.4033 36.7082 29.1446C35.9682 29.8858 35.0776 30.2558 34.0364 30.2545H3.78182ZM3.78182 26.4727H34.0364V3.78182H3.78182V26.4727Z" fill="white"/>
</svg>
