<svg width="39" height="36" viewBox="0 0 39 36" fill="none" xmlns="http://www.w3.org/2000/svg">
<path d="M32.8846 33.6623H5.42308C4.38261 33.6623 3.38476 33.249 2.64904 32.5133C1.91332 31.7776 1.5 30.7797 1.5 29.7392V12.0854C1.5 11.045 1.91332 10.0471 2.64904 9.31139C3.38476 8.57568 4.38261 8.16235 5.42308 8.16235H32.8846C33.9251 8.16235 34.9229 8.57568 35.6587 9.31139C36.3944 10.0471 36.8077 11.045 36.8077 12.0854V29.7392C36.8077 30.7797 36.3944 31.7776 35.6587 32.5133C34.9229 33.249 33.9251 33.6623 32.8846 33.6623Z" stroke="white" stroke-width="3"/>
<path d="M27.9808 21.8929C27.7207 21.8929 27.4712 21.7896 27.2873 21.6057C27.1033 21.4217 27 21.1723 27 20.9122C27 20.652 27.1033 20.4026 27.2873 20.2187C27.4712 20.0347 27.7207 19.9314 27.9808 19.9314C28.2409 19.9314 28.4903 20.0347 28.6743 20.2187C28.8582 20.4026 28.9615 20.652 28.9615 20.9122C28.9615 21.1723 28.8582 21.4217 28.6743 21.6057C28.4903 21.7896 28.2409 21.8929 27.9808 21.8929Z" fill="white" stroke="white" stroke-width="3" stroke-linecap="round" stroke-linejoin="round"/>
<path d="M30.9231 8.16224V5.42198C30.9229 4.82077 30.7846 4.22765 30.5187 3.68841C30.2529 3.14917 29.8667 2.67824 29.3899 2.31199C28.9131 1.94574 28.3586 1.69397 27.769 1.57611C27.1795 1.45826 26.5707 1.47748 25.9898 1.63229L4.41288 7.38548C3.57737 7.60813 2.83883 8.10057 2.31206 8.78626C1.78529 9.47195 1.49981 10.3125 1.5 11.1771V12.0853" stroke="white" stroke-width="3"/>
</svg>
